# xmcd
#
# Track frame offsets:
#	150
#	12357
#	24850
#	34340
#	46967
#	56630
#	69287
#	80602
#	97477
#	108155
#	122797
#	132575
#	141847
#	153452
#	167092
#	178855
#	189147
#	201462
#	214657
#	229115
#
# Disc length: 3194 seconds
#
# Revision: 1
# Processed by: cddbd v1.5.2PL0 Copyright (c) Steve Scherf et al.
# Submitted via: audiograbber 1.83.01
#
DISCID=1f0c7814
DTITLE=Patsy Cline - top hits monthly
DYEAR=1900
DGENRE=
TTITLE0=Crazy
TTITLE1=Sweet Dreams
TTITLE2=Walkin' After Midnight
TTITLE3=I Fall To Pieces
TTITLE4=Back In Baby's Arms
TTITLE5=Always
TTITLE6=Leavin' On Your Mind
TTITLE7=Faded Love
TTITLE8=I Love You So Much It Hurts
TTITLE9=The Wayward Wind
TTITLE10=Anytime
TTITLE11=Bill Bailey
TTITLE12=South Of The Border
TTITLE13=She's Got You
TTITLE14=There He Goes
TTITLE15=Have You Ever Been Lonely
TTITLE16=San Antonio Rose
TTITLE17=You Took Him Off My Hands
TTITLE18=In Care Of The Blues
TTITLE19=Three Cigarettes In An Ashtray
EXTD=
EXTT0=
EXTT1=
EXTT2=
EXTT3=
EXTT4=
EXTT5=
EXTT6=
EXTT7=
EXTT8=
EXTT9=
EXTT10=
EXTT11=
EXTT12=
EXTT13=
EXTT14=
EXTT15=
EXTT16=
EXTT17=
EXTT18=
EXTT19=
PLAYORDER=
